<svg xmlns="http://www.w3.org/2000/svg" xmlns:xlink="http://www.w3.org/1999/xlink" width="173" zoomAndPan="magnify" viewBox="0 0 129.75 129.749996" height="173" preserveAspectRatio="xMidYMid meet" version="1.0"><defs><g/></defs><g fill="#ff8d55" fill-opacity="0.4"><g transform="translate(23.57167, 58.500144)"><g><path d="M 23.277344 -12.449219 L 19.933594 -12.449219 L 19.933594 -27.589844 L 13.382812 -27.589844 L 1.722656 -12.449219 L 1.722656 -7.3125 L 14.761719 -7.3125 L 14.761719 0 L 19.933594 0 L 19.933594 -7.3125 L 23.277344 -7.3125 Z M 7.207031 -12.449219 L 14.761719 -22.277344 L 14.761719 -12.449219 Z M 7.207031 -12.449219 "/></g></g></g><g fill="#ff8d55" fill-opacity="0.4"><g transform="translate(48.573117, 58.500144)"><g><path d="M 11.175781 -7.828125 C 12.3125 -8.414062 13.449219 -8.898438 14.554688 -9.347656 C 18.796875 -11.140625 23.175781 -13 23.175781 -18.726562 C 23.175781 -24.210938 19.277344 -27.625 12.96875 -27.625 C 7.207031 -27.625 4.449219 -24.691406 3.136719 -22.246094 C 1.757812 -19.726562 1.722656 -17.277344 1.722656 -17.003906 L 6.757812 -17.003906 C 6.757812 -17.003906 6.792969 -18.554688 7.621094 -20.003906 C 8.621094 -21.761719 10.378906 -22.589844 12.96875 -22.589844 C 14.519531 -22.589844 15.898438 -22.277344 16.796875 -21.691406 C 17.382812 -21.3125 18.175781 -20.589844 18.175781 -18.726562 C 18.175781 -16.933594 17.726562 -16.175781 12.589844 -13.96875 C 11.484375 -13.519531 10.207031 -12.96875 8.933594 -12.347656 C 4.378906 -10.105469 2.863281 -7 2.34375 -4.691406 C 2.277344 -4.378906 2.136719 -3.863281 2.136719 -3.484375 L 2.136719 -3.207031 C 2.105469 -2.722656 2.105469 -2.3125 2.105469 -2.035156 L 2.136719 -2.035156 L 2.136719 0 L 23.175781 0 L 23.175781 -5 L 7.828125 -5 C 8.378906 -6 9.378906 -6.964844 11.175781 -7.828125 Z M 11.175781 -7.828125 "/></g></g></g><g fill="#ff8d55" fill-opacity="0.4"><g transform="translate(73.471113, 58.500144)"><g><path d="M 12.242188 -27.589844 C 5.070312 -27.589844 1.722656 -21.417969 1.722656 -13.796875 C 1.722656 -6.207031 5.070312 -0.0351562 12.242188 -0.0351562 C 19.933594 -0.0351562 22.761719 -6.207031 22.761719 -13.796875 C 22.761719 -21.417969 19.933594 -27.589844 12.242188 -27.589844 Z M 12.242188 -22.554688 C 14.65625 -22.554688 15.105469 -21.65625 15.691406 -20.761719 C 16.691406 -19.277344 17.210938 -16.828125 17.210938 -13.796875 C 17.210938 -10.792969 16.691406 -8.3125 15.691406 -6.863281 C 15.105469 -5.964844 14.65625 -5.070312 12.242188 -5.070312 C 10.519531 -5.070312 9.828125 -5.621094 8.933594 -6.933594 C 7.863281 -8.484375 7.277344 -10.933594 7.277344 -13.796875 C 7.277344 -16.691406 7.621094 -19.140625 8.691406 -20.691406 C 9.585938 -21.96875 10.519531 -22.554688 12.242188 -22.554688 Z M 12.242188 -22.554688 "/></g></g></g><g fill="#8fff00" fill-opacity="1"><g transform="translate(25.584043, 57.727665)"><g><path d="M 23.277344 -12.449219 L 19.933594 -12.449219 L 19.933594 -27.589844 L 13.382812 -27.589844 L 1.722656 -12.449219 L 1.722656 -7.3125 L 14.761719 -7.3125 L 14.761719 0 L 19.933594 0 L 19.933594 -7.3125 L 23.277344 -7.3125 Z M 7.207031 -12.449219 L 14.761719 -22.277344 L 14.761719 -12.449219 Z M 7.207031 -12.449219 "/></g></g></g><g fill="#8fff00" fill-opacity="1"><g transform="translate(50.58549, 57.727665)"><g><path d="M 11.175781 -7.828125 C 12.3125 -8.414062 13.449219 -8.898438 14.554688 -9.347656 C 18.796875 -11.140625 23.175781 -13 23.175781 -18.726562 C 23.175781 -24.210938 19.277344 -27.625 12.96875 -27.625 C 7.207031 -27.625 4.449219 -24.691406 3.136719 -22.246094 C 1.757812 -19.726562 1.722656 -17.277344 1.722656 -17.003906 L 6.757812 -17.003906 C 6.757812 -17.003906 6.792969 -18.554688 7.621094 -20.003906 C 8.621094 -21.761719 10.378906 -22.589844 12.96875 -22.589844 C 14.519531 -22.589844 15.898438 -22.277344 16.796875 -21.691406 C 17.382812 -21.3125 18.175781 -20.589844 18.175781 -18.726562 C 18.175781 -16.933594 17.726562 -16.175781 12.589844 -13.96875 C 11.484375 -13.519531 10.207031 -12.96875 8.933594 -12.347656 C 4.378906 -10.105469 2.863281 -7 2.34375 -4.691406 C 2.277344 -4.378906 2.136719 -3.863281 2.136719 -3.484375 L 2.136719 -3.207031 C 2.105469 -2.722656 2.105469 -2.3125 2.105469 -2.035156 L 2.136719 -2.035156 L 2.136719 0 L 23.175781 0 L 23.175781 -5 L 7.828125 -5 C 8.378906 -6 9.378906 -6.964844 11.175781 -7.828125 Z M 11.175781 -7.828125 "/></g></g></g><g fill="#8fff00" fill-opacity="1"><g transform="translate(75.483486, 57.727665)"><g><path d="M 12.242188 -27.589844 C 5.070312 -27.589844 1.722656 -21.417969 1.722656 -13.796875 C 1.722656 -6.207031 5.070312 -0.0351562 12.242188 -0.0351562 C 19.933594 -0.0351562 22.761719 -6.207031 22.761719 -13.796875 C 22.761719 -21.417969 19.933594 -27.589844 12.242188 -27.589844 Z M 12.242188 -22.554688 C 14.65625 -22.554688 15.105469 -21.65625 15.691406 -20.761719 C 16.691406 -19.277344 17.210938 -16.828125 17.210938 -13.796875 C 17.210938 -10.792969 16.691406 -8.3125 15.691406 -6.863281 C 15.105469 -5.964844 14.65625 -5.070312 12.242188 -5.070312 C 10.519531 -5.070312 9.828125 -5.621094 8.933594 -6.933594 C 7.863281 -8.484375 7.277344 -10.933594 7.277344 -13.796875 C 7.277344 -16.691406 7.621094 -19.140625 8.691406 -20.691406 C 9.585938 -21.96875 10.519531 -22.554688 12.242188 -22.554688 Z M 12.242188 -22.554688 "/></g></g></g><g fill="#ffffff" fill-opacity="0.4"><g transform="translate(23.57167, 92.082352)"><g><path d="M 23.277344 -12.449219 L 19.933594 -12.449219 L 19.933594 -27.589844 L 13.382812 -27.589844 L 1.722656 -12.449219 L 1.722656 -7.3125 L 14.761719 -7.3125 L 14.761719 0 L 19.933594 0 L 19.933594 -7.3125 L 23.277344 -7.3125 Z M 7.207031 -12.449219 L 14.761719 -22.277344 L 14.761719 -12.449219 Z M 7.207031 -12.449219 "/></g></g></g><g fill="#ffffff" fill-opacity="0.4"><g transform="translate(48.573117, 92.082352)"><g><path d="M 11.175781 -7.828125 C 12.3125 -8.414062 13.449219 -8.898438 14.554688 -9.347656 C 18.796875 -11.140625 23.175781 -13 23.175781 -18.726562 C 23.175781 -24.210938 19.277344 -27.625 12.96875 -27.625 C 7.207031 -27.625 4.449219 -24.691406 3.136719 -22.246094 C 1.757812 -19.726562 1.722656 -17.277344 1.722656 -17.003906 L 6.757812 -17.003906 C 6.757812 -17.003906 6.792969 -18.554688 7.621094 -20.003906 C 8.621094 -21.761719 10.378906 -22.589844 12.96875 -22.589844 C 14.519531 -22.589844 15.898438 -22.277344 16.796875 -21.691406 C 17.382812 -21.3125 18.175781 -20.589844 18.175781 -18.726562 C 18.175781 -16.933594 17.726562 -16.175781 12.589844 -13.96875 C 11.484375 -13.519531 10.207031 -12.96875 8.933594 -12.347656 C 4.378906 -10.105469 2.863281 -7 2.34375 -4.691406 C 2.277344 -4.378906 2.136719 -3.863281 2.136719 -3.484375 L 2.136719 -3.207031 C 2.105469 -2.722656 2.105469 -2.3125 2.105469 -2.035156 L 2.136719 -2.035156 L 2.136719 0 L 23.175781 0 L 23.175781 -5 L 7.828125 -5 C 8.378906 -6 9.378906 -6.964844 11.175781 -7.828125 Z M 11.175781 -7.828125 "/></g></g></g><g fill="#ffffff" fill-opacity="0.4"><g transform="translate(73.471113, 92.082352)"><g><path d="M 12.242188 -27.589844 C 5.070312 -27.589844 1.722656 -21.417969 1.722656 -13.796875 C 1.722656 -6.207031 5.070312 -0.0351562 12.242188 -0.0351562 C 19.933594 -0.0351562 22.761719 -6.207031 22.761719 -13.796875 C 22.761719 -21.417969 19.933594 -27.589844 12.242188 -27.589844 Z M 12.242188 -22.554688 C 14.65625 -22.554688 15.105469 -21.65625 15.691406 -20.761719 C 16.691406 -19.277344 17.210938 -16.828125 17.210938 -13.796875 C 17.210938 -10.792969 16.691406 -8.3125 15.691406 -6.863281 C 15.105469 -5.964844 14.65625 -5.070312 12.242188 -5.070312 C 10.519531 -5.070312 9.828125 -5.621094 8.933594 -6.933594 C 7.863281 -8.484375 7.277344 -10.933594 7.277344 -13.796875 C 7.277344 -16.691406 7.621094 -19.140625 8.691406 -20.691406 C 9.585938 -21.96875 10.519531 -22.554688 12.242188 -22.554688 Z M 12.242188 -22.554688 "/></g></g></g><g fill="#c1ff72" fill-opacity="1"><g transform="translate(25.584043, 91.309874)"><g><path d="M 23.277344 -12.449219 L 19.933594 -12.449219 L 19.933594 -27.589844 L 13.382812 -27.589844 L 1.722656 -12.449219 L 1.722656 -7.3125 L 14.761719 -7.3125 L 14.761719 0 L 19.933594 0 L 19.933594 -7.3125 L 23.277344 -7.3125 Z M 7.207031 -12.449219 L 14.761719 -22.277344 L 14.761719 -12.449219 Z M 7.207031 -12.449219 "/></g></g></g><g fill="#c1ff72" fill-opacity="1"><g transform="translate(50.58549, 91.309874)"><g><path d="M 11.175781 -7.828125 C 12.3125 -8.414062 13.449219 -8.898438 14.554688 -9.347656 C 18.796875 -11.140625 23.175781 -13 23.175781 -18.726562 C 23.175781 -24.210938 19.277344 -27.625 12.96875 -27.625 C 7.207031 -27.625 4.449219 -24.691406 3.136719 -22.246094 C 1.757812 -19.726562 1.722656 -17.277344 1.722656 -17.003906 L 6.757812 -17.003906 C 6.757812 -17.003906 6.792969 -18.554688 7.621094 -20.003906 C 8.621094 -21.761719 10.378906 -22.589844 12.96875 -22.589844 C 14.519531 -22.589844 15.898438 -22.277344 16.796875 -21.691406 C 17.382812 -21.3125 18.175781 -20.589844 18.175781 -18.726562 C 18.175781 -16.933594 17.726562 -16.175781 12.589844 -13.96875 C 11.484375 -13.519531 10.207031 -12.96875 8.933594 -12.347656 C 4.378906 -10.105469 2.863281 -7 2.34375 -4.691406 C 2.277344 -4.378906 2.136719 -3.863281 2.136719 -3.484375 L 2.136719 -3.207031 C 2.105469 -2.722656 2.105469 -2.3125 2.105469 -2.035156 L 2.136719 -2.035156 L 2.136719 0 L 23.175781 0 L 23.175781 -5 L 7.828125 -5 C 8.378906 -6 9.378906 -6.964844 11.175781 -7.828125 Z M 11.175781 -7.828125 "/></g></g></g><g fill="#c1ff72" fill-opacity="1"><g transform="translate(75.483486, 91.309874)"><g><path d="M 12.242188 -27.589844 C 5.070312 -27.589844 1.722656 -21.417969 1.722656 -13.796875 C 1.722656 -6.207031 5.070312 -0.0351562 12.242188 -0.0351562 C 19.933594 -0.0351562 22.761719 -6.207031 22.761719 -13.796875 C 22.761719 -21.417969 19.933594 -27.589844 12.242188 -27.589844 Z M 12.242188 -22.554688 C 14.65625 -22.554688 15.105469 -21.65625 15.691406 -20.761719 C 16.691406 -19.277344 17.210938 -16.828125 17.210938 -13.796875 C 17.210938 -10.792969 16.691406 -8.3125 15.691406 -6.863281 C 15.105469 -5.964844 14.65625 -5.070312 12.242188 -5.070312 C 10.519531 -5.070312 9.828125 -5.621094 8.933594 -6.933594 C 7.863281 -8.484375 7.277344 -10.933594 7.277344 -13.796875 C 7.277344 -16.691406 7.621094 -19.140625 8.691406 -20.691406 C 9.585938 -21.96875 10.519531 -22.554688 12.242188 -22.554688 Z M 12.242188 -22.554688 "/></g></g></g></svg>